# xmcd
#
# Track frame offsets:
# 150
# 12988
# 27140
# 42582
# 62127
# 81521
# 92052
# 107680
# 122875
#
# Disc length: 1897 seconds
#
# Revision: 0
# Processed by: cddbd v1.5.1PL0 Copyright (c) Steve Scherf et al.
# Submitted via: Audion 3.0.2 (http://www.panic.com/audion/)
#
DISCID=75076709
DTITLE=Hailey Wojcik - Jealous Sees
DYEAR=1900
DGENRE=
TTITLE0=Nabokov's Butterfly
TTITLE1=Dinosaur Bone
TTITLE2=Jealous Sees
TTITLE3=Bad Modern Art
TTITLE4=Orange Peels
TTITLE5=F#c@ You (I Quit)
TTITLE6=I Don't Get It
TTITLE7=Colorfully Active
TTITLE8=Messy Since I Met You
EXTD=
EXTT0=
EXTT1=
EXTT2=
EXTT3=
EXTT4=
EXTT5=
EXTT6=
EXTT7=
EXTT8=
PLAYORDER=
